<svg xmlns="http://www.w3.org/2000/svg" height="56" viewBox="0 0 44 56" class="as-svgicon as-svgicon-briefcase as-svgicon-elevated" aria-hidden="true"><path d="m39 12h-7v-3a4 4 0 0 0 -4-4h-12a4 4 0 0 0 -4 4v3h-7a5 5 0 0 0 -5 5v22a5 5 0 0 0 5 5h34a5 5 0 0 0 5-5v-22a5 5 0 0 0 -5-5zm-25-3a2.0021 2.0021 0 0 1 2-2h12a2.0021 2.0021 0 0 1 2 2v3h-16zm28 30a3.0033 3.0033 0 0 1 -3 3h-34a3.0033 3.0033 0 0 1 -3-3v-15.7944a62.2583 62.2583 0 0 0 14.5 2.77v2.0244a2 2 0 0 0 2 2h7a2 2 0 0 0 2-2v-2.024a62.2583 62.2583 0 0 0 14.5-2.77zm-3-25a3.0033 3.0033 0 0 1 3 3v4.0855a62.88 62.88 0 0 1 -20 3.1045 62.88 62.88 0 0 1 -20-3.1045v-4.0855a3.0033 3.0033 0 0 1 3-3z"/></svg>