<svg xmlns="http://www.w3.org/2000/svg" height="56" viewBox="0 0 35 35" width="56" class="as-svgicon as-svgicon-personalization as-svgicon-elevated as-svgicon-personalizationelevated" role="img" aria-hidden="true"><path d="m0 0h35v35h-35z" fill="none"/><path d="m17.5 6.1a11.4 11.4 0 1 1 -11.4 11.4 11.4129 11.4129 0 0 1 11.4-11.4m0-1.1a12.5 12.5 0 1 0 12.5 12.5 12.5 12.5 0 0 0 -12.5-12.5zm3.7707 11.3121a1.213 1.213 0 0 0 .9343-.4539 1.8075 1.8075 0 0 0 0-2.269 1.213 1.213 0 0 0 -.9343-.4539 1.2009 1.2009 0 0 0 -.921.4539 1.7981 1.7981 0 0 0 0 2.2624 1.1946 1.1946 0 0 0 .921.4605zm-7.5547 0a1.2454 1.2454 0 0 0 .9476-.4605 1.764 1.764 0 0 0 .0067-2.2624 1.2454 1.2454 0 0 0 -.9543-.4539 1.1813 1.1813 0 0 0 -.9143.4539 1.8311 1.8311 0 0 0 0 2.269 1.1813 1.1813 0 0 0 .9143.4539zm11.9727 2.2157a.655.655 0 0 0 -.6407-.08 27.5372 27.5372 0 0 1 -3.6906.861 24.1545 24.1545 0 0 1 -3.8507.3 24.2809 24.2809 0 0 1 -3.8575-.3 26.9794 26.9794 0 0 1 -3.6839-.861.6922.6922 0 0 0 -.6607.08.6079.6079 0 0 0 -.18.6139 7.7434 7.7434 0 0 0 1.4015 3.6306 8.5219 8.5219 0 0 0 2.9765 2.5961 8.3779 8.3779 0 0 0 4.0043.9677 8.35 8.35 0 0 0 3.9909-.9677 8.5849 8.5849 0 0 0 2.9832-2.5961 7.5976 7.5976 0 0 0 1.3948-3.6306.6384.6384 0 0 0 -.1871-.6139zm-1.4815 2.83a23.8689 23.8689 0 0 1 -3.3169.7008 24.6667 24.6667 0 0 1 -3.3836.2335 24.8628 24.8628 0 0 1 -3.3837-.2335 23.7823 23.7823 0 0 1 -3.33-.7008 6.2135 6.2135 0 0 1 -.694-1.8686 27.7532 27.7532 0 0 0 3.6171.7875 25.529 25.529 0 0 0 3.7908.28 25.5717 25.5717 0 0 0 3.784-.28 27.1787 27.1787 0 0 0 3.61-.7875 6.0407 6.0407 0 0 1 -.6937 1.8682z" fill="#AB39FF"/></svg>