<svg xmlns="http://www.w3.org/2000/svg" height="56" viewBox="0 0 49 56" width="49" class="as-svgicon as-svgicon-boxtruck as-svgicon-elevated" aria-hidden="true" role="img">
  <path d="m0 0h49v56h-49z" fill="none"/>
  <path d="m47.8447 27.501-6.6757-7.1289a4.37 4.37 0 0 0 -3.4854-1.3721h-4.6836v-4a5 5 0 0 0 -5-5h-23a5 5 0 0 0 -5 5v21a5 5 0 0 0 5 5h1.15a5.6216 5.6216 0 0 0 11.2 0h13.8a5.6216 5.6216 0 0 0 11.2 0h2.6436c2.5464 0 4.0064-1.4092 4.0064-3.8657v-6.7515a4.15 4.15 0 0 0 -1.1553-2.8818zm-32.5202 13.499a3.6068 3.6068 0 0 1 -7.1489 0 3.2083 3.2083 0 0 1 .2844-2 3.6251 3.6251 0 0 1 6.9155 1.5 3.5555 3.5555 0 0 1 -.051.5zm15.6755-2h-13.8335a5.6187 5.6187 0 0 0 -10.833 0h-1.3335a3.0033 3.0033 0 0 1 -3-3v-21a3.0033 3.0033 0 0 1 3-3h23a3.0033 3.0033 0 0 1 3 3zm9.3245 2a3.6068 3.6068 0 0 1 -7.1489 0 3.2083 3.2083 0 0 1 .2839-2 3.6251 3.6251 0 0 1 6.9155 1.5 3.5555 3.5555 0 0 1 -.0505.5zm6.6755-3.8657c0 1.3257-.581 1.8657-2.0068 1.8657h-2.8267a5.6127 5.6127 0 0 0 -9.1665-2.6843v-15.3157h4.6836a2.4292 2.4292 0 0 1 2.03.7437l6.6875 7.1411a2.18 2.18 0 0 1 .5989 1.498zm-3.3913-8.0216a1.2119 1.2119 0 0 1 .3913.8873h-7.7773a1.1432 1.1432 0 0 1 -1.2227-1.2324v-5.7676h2.4131a1.6822 1.6822 0 0 1 1.3364.6244z" fill="#6CCA4E"/>
</svg>